<svg xmlns="http://www.w3.org/2000/svg" viewBox="0 0 1300.75 100">
  <path id="Munich" d="M956.48,71.51V0H975.8V74.05A16.12,16.12,0,0,1,971,85.29l-9.85,10A15.83,15.83,0,0,1,949.85,100h-19a15.83,15.83,0,0,1-11.26-4.68l-9.86-10A16,16,0,0,1,905,74.05V0h19.18V71.51a3.44,3.44,0,0,0,.85,2.26l6.2,6.06a2.8,2.8,0,0,0,2.26,1h13.68a2.77,2.77,0,0,0,2.25-1l6.21-6.06A3.44,3.44,0,0,0,956.48,71.51ZM1070.14,0V100h-17.35a3,3,0,0,1-2.68-1.55L1016.4,38.93V100H997.22V0h17.2a3.22,3.22,0,0,1,2.83,1.7L1051,61.07V0Zm41.42,100h-19.18V0h19.18ZM1281.76,0h-20.55l16.26,40.42h-34.7V59.53h34.7L1261.21,100h20.55l19-50Zm-94,71.37-2.39,2.39h0l-6.07,6.06a3.33,3.33,0,0,1-2.4,1h-17.2a3,3,0,0,1-2.26-1l-6.07-6.06a3,3,0,0,1-1-2.26V28.63a2.82,2.82,0,0,1,1-2.26l6.07-6.2a3.61,3.61,0,0,1,2.26-1h17.2a4,4,0,0,1,2.4,1l8.46,8.46,13.52-13.52a5.48,5.48,0,0,0-.4-.44l-10-9.88A16.41,16.41,0,0,0,1179.6,0h-22.42a16.13,16.13,0,0,0-11.43,4.79l-9.87,9.88A16,16,0,0,0,1131.22,26V74a16,16,0,0,0,4.66,11.29l9.87,10a15.78,15.78,0,0,0,11.43,4.65h22.42a16,16,0,0,0,11.29-4.65l10-10a5.48,5.48,0,0,0,.4-.44ZM1233,100h-19.18V0H1233ZM865.4,0,838.72,46.21,812,0H793.68V100h19.18V38.15L830.07,68a3.2,3.2,0,0,0,2.77,1.6h11.75a3.19,3.19,0,0,0,2.77-1.6l17.08-29.57V100h19.18V0Z" fill="#ff506e"/>
  <path id="Helmholtz" d="M53.45,0H72.64V100H53.45V59.67H19.18V100H0V0H19.18V40.47H53.45Zm50.13,0a3.25,3.25,0,0,0-2.26,1l-6.2,6.2a2.81,2.81,0,0,0-1,2.25V90.55a2.82,2.82,0,0,0,1,2.26l6.2,6.2a2.82,2.82,0,0,0,2.26,1h53.6V80.82H113.31V59.67H151.4V40.47H113.31V19.18h43.87V0Zm82.47,100h44.6V80.82H195.78V0H176.6V90.55a2.76,2.76,0,0,0,1,2.26l6.2,6.2a2.82,2.82,0,0,0,2.26,1ZM374,40.47V0H354.82V100H374V59.67h34.27V100h19.19V0H408.27V40.47Zm127.61,31a3.61,3.61,0,0,1-1,2.26l-6.06,6.06a3.33,3.33,0,0,1-2.4,1H475a3,3,0,0,1-2.26-1l-6.06-6.06a3,3,0,0,1-1-2.26V28.63a2.82,2.82,0,0,1,1-2.26l6.06-6.2a3.61,3.61,0,0,1,2.26-1h17.21a4,4,0,0,1,2.4,1l6.06,6.2a3.3,3.3,0,0,1,1,2.26Zm4.51-66.72A16.4,16.4,0,0,0,494.84,0H472.42A16.13,16.13,0,0,0,461,4.79l-9.88,9.88A16,16,0,0,0,446.46,26V74a16,16,0,0,0,4.65,11.29l9.88,10A15.76,15.76,0,0,0,472.42,100h22.42a16,16,0,0,0,11.28-4.65l10-10A16,16,0,0,0,520.79,74V26a16,16,0,0,0-4.65-11.28l-10-9.88ZM548.82,100h45.4V80.82H558.55V0H539.37V90.55a2.78,2.78,0,0,0,1,2.26l6.21,6.2a2.82,2.82,0,0,0,2.26,1Zm67-80.82V100H635V19.18h26.51V0H589.32V19.18ZM730.19,1a3.3,3.3,0,0,0-2.27-1h-56V19.18h39.64L670.1,84.77v5.78a3.33,3.33,0,0,0,1,2.26l6.21,6.2a2.82,2.82,0,0,0,2.26,1h57.26V80.82H695.34l42-66.44V9.44a3.34,3.34,0,0,0-1-2.25L730.19,1ZM314.31,0,287.63,46.21,260.94,0H242.59V100h19.18V38.15L279,68a3.2,3.2,0,0,0,2.77,1.6H293.5a3.19,3.19,0,0,0,2.77-1.6l17.08-29.57V100h19.18V0Z" fill="#69005F"/>
</svg>
