<?xml version="1.0" encoding="utf-8"?>
<!-- Generator: Adobe Illustrator 23.0.3, SVG Export Plug-In . SVG Version: 6.00 Build 0)  -->
<svg version="1.1" id="Layer_1" xmlns="http://www.w3.org/2000/svg" xmlns:xlink="http://www.w3.org/1999/xlink" x="0px" y="0px"
	 viewBox="0 0 188.2 30.3" style="enable-background:new 0 0 188.2 30.3;" xml:space="preserve">
<style type="text/css">
	.st0{fill:#004C98;}
	.st1{fill:#111516;}
</style>
<g>
	<g>
		<rect x="63.4" y="0.2" class="st0" width="8" height="30.2"/>
		<polygon class="st0" points="106.3,0.2 106.3,6.5 116.4,6.5 116.4,30.4 124.4,30.4 124.4,6.5 134.5,6.5 134.5,0.2 		"/>
		<path class="st0" d="M95.1,12.1h-6.7c-1.8,0-3.2-0.7-3.2-2.8c0-2.1,1.4-2.8,3.2-2.8h14.4V0.2H87.4C81.7,0.2,77,3.5,77,9.3
			s4.7,9.1,10.4,9.1h6.9c1.8,0,3.2,0.7,3.2,2.8c0,2.1-1.4,2.8-3.2,2.8H78.2v6.3h16.9c5.7,0,10.4-3.3,10.4-9.1
			C105.5,15.5,100.8,12.1,95.1,12.1"/>
		<polygon class="st0" points="38.9,0.2 27.6,27.4 16.8,15.3 30.3,0.2 21.1,0.2 8.3,14.5 8.3,0.2 0.3,0.2 0.3,30.4 8.3,30.4 8.3,16 
			21.1,30.4 34.5,30.4 43.7,7.6 50.4,24.3 39.7,24.3 42.3,30.4 61,30.4 48.4,0.2 		"/>
		<rect x="179.9" y="0.3" class="st0" width="8" height="30.2"/>
		<polygon class="st0" points="155.8,0.3 165.3,0.3 177.9,30.5 159.2,30.5 156.6,24.5 167.2,24.5 160.6,7.7 151.4,30.5 143.2,30.5 
					"/>
	</g>
</g>
</svg>
